<?xml version="1.0" encoding="UTF-8"?>
<svg width="1009px" height="422px" viewBox="0 0 1009 422" version="1.1" xmlns="http://www.w3.org/2000/svg" xmlns:xlink="http://www.w3.org/1999/xlink">
    <!-- Generator: Sketch 47.1 (45422) - http://www.bohemiancoding.com/sketch -->
    <title>Logo</title>
    <desc>Created with Sketch.</desc>
    <defs></defs>
    <g id="Page-1" stroke="none" stroke-width="1" fill="none" fill-rule="evenodd">
        <g id="Logo" fill-rule="nonzero">
            <g id="Group" transform="translate(0.000000, 144.000000)" fill="#ffffff">
                <path d="M65.9,133.3 C57,133.3 48.7,131.7 40.7,128.6 C32.8,125.5 25.9,121.1 19.9,115.3 C14,109.5 9.3,102.6 5.8,94.5 C2.3,86.4 0.6,77.2 0.6,67 C0.6,56.8 2.4,47.6 5.9,39.4 C9.4,31.2 14.2,24.2 20.2,18.5 C26.2,12.8 33.1,8.3 41,5.2 C48.8,2.1 57,0.5 65.5,0.5 C74.2,0.5 82,1.7 88.8,4.2 C95.6,6.7 101.3,9.9 106,13.9 C110.7,17.9 114.6,22.4 117.5,27.5 C120.4,32.5 122.6,37.6 123.9,42.8 L100.5,50.2 C99.8,47.2 98.6,44.2 96.9,41 C95.2,37.9 93,35.1 90.2,32.7 C87.4,30.3 83.9,28.3 79.9,26.8 C75.8,25.2 71,24.5 65.5,24.5 C60.7,24.5 56,25.4 51.3,27.1 C46.6,28.8 42.4,31.4 38.7,34.9 C35,38.4 32,42.8 29.7,48.2 C27.4,53.6 26.3,59.9 26.3,67.1 C26.3,73.9 27.4,79.9 29.6,85.2 C31.8,90.4 34.7,94.8 38.4,98.3 C42.1,101.8 46.2,104.5 51,106.4 C55.7,108.3 60.7,109.2 65.8,109.2 C71.2,109.2 76,108.4 80.1,106.8 C84.2,105.2 87.7,103.1 90.6,100.6 C93.5,98.1 95.8,95.3 97.6,92.2 C99.4,89.1 100.7,86.1 101.6,83.1 L124.8,90.1 C123.6,95 121.5,100 118.6,105.1 C115.7,110.2 111.8,114.8 106.9,119 C102,123.2 96.2,126.6 89.5,129.3 C82.8,132 74.9,133.3 65.9,133.3 Z" id="Shape"></path>
                <path d="M125.9,67 C125.9,56.7 127.7,47.4 131.3,39.2 C134.9,31 139.7,24 145.7,18.3 C151.7,12.6 158.6,8.1 166.5,5.1 C174.4,2 182.7,0.5 191.3,0.5 C199.9,0.5 208.2,2 216.2,5.1 C224.2,8.2 231.1,12.6 237.1,18.3 C243.1,24.1 247.9,31 251.5,39.2 C255.1,47.4 256.9,56.7 256.9,67 C256.9,77.3 255.1,86.5 251.5,94.7 C247.9,102.8 243.1,109.8 237.1,115.5 C231.1,121.2 224.1,125.7 216.2,128.7 C208.2,131.8 199.9,133.3 191.3,133.3 C182.7,133.3 174.4,131.8 166.5,128.7 C158.6,125.6 151.6,121.2 145.7,115.5 C139.7,109.7 134.9,102.8 131.3,94.7 C127.7,86.5 125.9,77.3 125.9,67 Z M151.6,66.8 C151.6,74 152.7,80.2 155,85.6 C157.3,90.9 160.3,95.3 164.1,98.8 C167.9,102.3 172.1,104.9 176.9,106.6 C181.6,108.3 186.5,109.2 191.4,109.2 C196.3,109.2 201.2,108.3 206,106.6 C210.8,104.9 215.1,102.3 218.8,98.8 C222.6,95.3 225.6,90.9 227.9,85.6 C230.2,80.3 231.3,74 231.3,66.8 C231.3,59.6 230.2,53.4 227.9,48 C225.6,42.7 222.6,38.3 218.8,34.8 C215,31.3 210.7,28.7 206,27 C201.2,25.3 196.4,24.4 191.4,24.4 C186.5,24.4 181.7,25.3 176.9,27 C172.2,28.7 167.9,31.3 164.1,34.8 C160.3,38.3 157.3,42.7 155,48 C152.7,53.4 151.6,59.6 151.6,66.8 Z" id="Shape"></path>
                <path d="M337.4,101.5 L285.7,101.5 L275,130.6 L248.8,130.6 L297.7,3.2 L326.4,3.2 L374.9,130.6 L347.9,130.6 L337.4,101.5 Z M293.9,78.9 L329.1,78.9 L311.5,30.7 L293.9,78.9 Z" id="Shape"></path>
                <path d="M432.1,133.3 C423.2,133.3 414.9,131.7 406.9,128.6 C399,125.5 392.1,121.1 386.1,115.3 C380.2,109.5 375.5,102.6 372,94.5 C368.5,86.4 366.8,77.2 366.8,67 C366.8,56.8 368.6,47.6 372.1,39.4 C375.6,31.2 380.4,24.2 386.4,18.5 C392.4,12.8 399.3,8.3 407.2,5.2 C415,2.1 423.2,0.5 431.7,0.5 C440.4,0.5 448.2,1.7 455,4.2 C461.8,6.7 467.5,9.9 472.2,13.9 C476.9,17.9 480.8,22.4 483.7,27.5 C486.6,32.5 488.8,37.6 490.1,42.8 L466.7,50.2 C466,47.2 464.8,44.2 463.1,41 C461.4,37.9 459.2,35.1 456.4,32.7 C453.6,30.3 450.1,28.3 446.1,26.8 C442,25.2 437.2,24.5 431.7,24.5 C426.9,24.5 422.2,25.4 417.5,27.1 C412.8,28.8 408.6,31.4 404.9,34.9 C401.2,38.4 398.2,42.8 395.9,48.2 C393.6,53.6 392.5,59.9 392.5,67.1 C392.5,73.9 393.6,79.9 395.8,85.2 C398,90.4 400.9,94.8 404.6,98.3 C408.3,101.8 412.4,104.5 417.2,106.4 C421.9,108.3 426.9,109.2 432,109.2 C437.4,109.2 442.2,108.4 446.3,106.8 C450.4,105.2 453.9,103.1 456.8,100.6 C459.7,98.1 462,95.3 463.8,92.2 C465.6,89.1 466.9,86.1 467.8,83.1 L491,90.1 C489.8,95 487.7,100 484.8,105.1 C481.9,110.2 478,114.8 473.1,119 C468.2,123.2 462.4,126.6 455.7,129.3 C448.9,132 441.1,133.3 432.1,133.3 Z" id="Shape"></path>
                <polygon id="Shape" points="581.2 130.6 581.2 77.8 525.7 77.8 525.7 130.6 500.9 130.6 500.9 3.2 525.7 3.2 525.7 54.4 581.2 54.4 581.2 3.2 606.2 3.2 606.2 130.6"></polygon>
            </g>
            <g id="Group" transform="translate(648.000000, 0.000000)" fill="#34FF5F">
                <g transform="translate(0.000000, 145.000000)" id="Shape">
                    <path d="M91.1,116.2 L85,100.1 L33,100.1 L26.9,116.5 C24.5,122.9 22.5,127.2 20.8,129.5 C19.1,131.7 16.3,132.9 12.5,132.9 C9.2,132.9 6.4,131.7 3.9,129.3 C1.4,126.9 0.1,124.2 0.1,121.2 C0.1,119.5 0.4,117.7 1,115.8 C1.6,113.9 2.5,111.3 3.9,108 L36.6,24.9 C37.5,22.5 38.7,19.6 40,16.3 C41.3,13 42.7,10.2 44.2,8 C45.7,5.8 47.6,4 50,2.6 C52.4,1.2 55.4,0.5 58.9,0.5 C62.5,0.5 65.5,1.2 67.9,2.6 C70.3,4 72.3,5.7 73.7,7.9 C75.2,10.1 76.4,12.4 77.5,14.8 C78.5,17.3 79.8,20.6 81.4,24.7 L114.8,107.3 C117.4,113.6 118.7,118.2 118.7,121 C118.7,124 117.5,126.7 115,129.2 C112.5,131.7 109.5,132.9 106.1,132.9 C104.1,132.9 102.3,132.5 100.9,131.8 C99.4,131.1 98.2,130.1 97.2,128.8 C96.2,127.5 95.1,125.6 94,123 C92.9,120.4 91.9,118.1 91.1,116.2 Z M39.8,80.6 L78,80.6 L58.7,27.8 L39.8,80.6 Z"></path>
                    <path d="M219.7,116.2 L213.6,100.1 L161.6,100.1 L155.5,116.5 C153.1,122.9 151.1,127.2 149.4,129.5 C147.7,131.7 144.9,132.9 141.1,132.9 C137.8,132.9 135,131.7 132.5,129.3 C130,126.9 128.7,124.2 128.7,121.2 C128.7,119.5 129,117.7 129.6,115.8 C130.2,113.9 131.1,111.3 132.5,108 L165.2,24.9 C166.1,22.5 167.3,19.6 168.6,16.3 C169.9,13 171.3,10.2 172.8,8 C174.3,5.8 176.2,4 178.6,2.6 C181,1.2 184,0.5 187.5,0.5 C191.1,0.5 194.1,1.2 196.5,2.6 C198.9,4 200.9,5.7 202.3,7.9 C203.8,10.1 205,12.4 206.1,14.8 C207.1,17.3 208.4,20.6 210,24.7 L243.4,107.3 C246,113.6 247.3,118.2 247.3,121 C247.3,124 246.1,126.7 243.6,129.2 C241.1,131.7 238.1,132.9 234.7,132.9 C232.7,132.9 230.9,132.5 229.5,131.8 C228,131.1 226.8,130.1 225.8,128.8 C224.8,127.5 223.7,125.6 222.6,123 C221.5,120.4 220.5,118.1 219.7,116.2 Z M168.4,80.6 L206.6,80.6 L187.3,27.8 L168.4,80.6 Z"></path>
                    <path d="M360.2,90.2 C360.2,94.3 359.2,98.7 357.2,103.4 C355.2,108.1 352,112.8 347.7,117.4 C343.4,122 337.9,125.7 331.2,128.5 C324.5,131.3 316.7,132.8 307.8,132.8 C301,132.8 294.9,132.2 289.4,130.9 C283.9,129.6 278.9,127.6 274.3,124.9 C269.8,122.2 265.6,118.6 261.9,114.2 C258.5,110.2 255.6,105.7 253.3,100.7 C250.9,95.7 249.1,90.4 247.9,84.8 C246.7,79.2 246.1,73.2 246.1,66.8 C246.1,56.5 247.6,47.3 250.6,39.1 C253.6,31 257.9,24 263.5,18.2 C269.1,12.4 275.6,8 283.1,5 C290.6,2 298.6,0.5 307.1,0.5 C317.5,0.5 326.7,2.6 334.8,6.7 C342.9,10.8 349.1,15.9 353.4,22 C357.7,28.1 359.9,33.8 359.9,39.2 C359.9,42.2 358.9,44.8 356.8,47.1 C354.7,49.4 352.2,50.5 349.2,50.5 C345.9,50.5 343.4,49.7 341.7,48.1 C340,46.5 338.2,43.8 336.2,40 C332.8,33.7 328.9,28.9 324.3,25.8 C319.7,22.7 314.1,21.1 307.4,21.1 C296.8,21.1 288.3,25.1 282,33.2 C275.7,41.3 272.5,52.8 272.5,67.7 C272.5,77.7 273.9,85.9 276.7,92.5 C279.5,99.1 283.4,104 288.6,107.3 C293.7,110.6 299.7,112.2 306.6,112.2 C314,112.2 320.3,110.4 325.5,106.7 C330.6,103 334.5,97.6 337.2,90.4 C338.3,87 339.7,84.3 341.3,82.2 C342.9,80.1 345.5,79 349.2,79 C352.3,79 354.9,80.1 357.1,82.2 C359.1,84.4 360.2,87 360.2,90.2 Z"></path>
                </g>
                <path d="M182.7,421.7 C115.7,421.7 53.5,391.5 11.9,339 C7.8,333.9 8.7,326.4 13.8,322.3 C18.9,318.2 26.4,319.1 30.5,324.2 C67.6,371.1 123,397.9 182.7,397.9 C239.4,397.9 293.1,373.2 330.1,330 C334.4,325 341.8,324.4 346.8,328.7 C351.8,333 352.4,340.4 348.1,345.4 C306.7,393.9 246.4,421.7 182.7,421.7 Z" id="Shape"></path>
                <path d="M21.2,102.6 C18.6,102.6 16,101.8 13.9,100 C8.8,95.9 7.9,88.5 12,83.3 C53.6,30.7 115.8,0.6 182.8,0.6 C246.5,0.6 306.7,28.4 348.2,76.8 C352.5,81.8 351.9,89.3 346.9,93.5 C341.9,97.8 334.4,97.2 330.2,92.2 C293.3,49.1 239.6,24.3 182.8,24.3 C123.1,24.3 67.7,51.2 30.6,98 C28.2,101.1 24.8,102.6 21.2,102.6 Z" id="Shape"></path>
            </g>
        </g>
    </g>
</svg>